<?xml version="1.0" encoding="UTF-8"?>
<svg xmlns="http://www.w3.org/2000/svg" xmlns:xlink="http://www.w3.org/1999/xlink" width="166px" height="151px" viewBox="0 0 166 151" version="1.1">
<defs>
<filter id="alpha" filterUnits="objectBoundingBox" x="0%" y="0%" width="100%" height="100%">
  <feColorMatrix type="matrix" in="SourceGraphic" values="0 0 0 0 1 0 0 0 0 1 0 0 0 0 1 0 0 0 1 0"/>
</filter>
<mask id="mask0">
  <g filter="url(#alpha)">
<rect x="0" y="0" width="166" height="151" style="fill:rgb(0%,0%,0%);fill-opacity:0.301961;stroke:none;"/>
  </g>
</mask>
<clipPath id="clip1">
  <rect x="0" y="0" width="166" height="151"/>
</clipPath>
<g id="surface5" clip-path="url(#clip1)">
<path style=" stroke:none;fillRule:nonzero;fill:rgb(100%,100%,100%);fill-opacity:1;" d="M 14.378906 77.148438 L 50.738281 77.148438 L 50.738281 82.046875 L 14.378906 82.046875 Z M 14.378906 77.148438 "/>
</g>
<mask id="mask1">
  <g filter="url(#alpha)">
<rect x="0" y="0" width="166" height="151" style="fill:rgb(0%,0%,0%);fill-opacity:0.301961;stroke:none;"/>
  </g>
</mask>
<clipPath id="clip2">
  <rect x="0" y="0" width="166" height="151"/>
</clipPath>
<g id="surface8" clip-path="url(#clip2)">
<path style=" stroke:none;fillRule:nonzero;fill:rgb(100%,100%,100%);fill-opacity:1;" d="M 49.859375 143.410156 L 51.339844 143.410156 L 51.339844 83.371094 L 48.21875 83.933594 Z M 49.859375 143.410156 "/>
</g>
<mask id="mask2">
  <g filter="url(#alpha)">
<rect x="0" y="0" width="166" height="151" style="fill:rgb(0%,0%,0%);fill-opacity:0.301961;stroke:none;"/>
  </g>
</mask>
<clipPath id="clip3">
  <rect x="0" y="0" width="166" height="151"/>
</clipPath>
<g id="surface11" clip-path="url(#clip3)">
<path style=" stroke:none;fillRule:nonzero;fill:rgb(100%,100%,100%);fill-opacity:1;" d="M 19.859375 143.410156 L 21.378906 143.410156 L 21.378906 83.371094 L 18.261719 83.933594 Z M 19.859375 143.410156 "/>
</g>
<mask id="mask3">
  <g filter="url(#alpha)">
<rect x="0" y="0" width="166" height="151" style="fill:rgb(0%,0%,0%);fill-opacity:0.301961;stroke:none;"/>
  </g>
</mask>
<clipPath id="clip4">
  <rect x="0" y="0" width="166" height="151"/>
</clipPath>
<g id="surface14" clip-path="url(#clip4)">
<path style=" stroke:none;fillRule:nonzero;fill:rgb(100%,100%,100%);fill-opacity:1;" d="M 141.820312 143.410156 L 143.339844 143.410156 L 143.339844 83.371094 L 140.21875 83.933594 Z M 141.820312 143.410156 "/>
</g>
<mask id="mask4">
  <g filter="url(#alpha)">
<rect x="0" y="0" width="166" height="151" style="fill:rgb(0%,0%,0%);fill-opacity:0.301961;stroke:none;"/>
  </g>
</mask>
<clipPath id="clip5">
  <rect x="0" y="0" width="166" height="151"/>
</clipPath>
<g id="surface17" clip-path="url(#clip5)">
<path style=" stroke:none;fillRule:nonzero;fill:rgb(100%,100%,100%);fill-opacity:1;" d="M 111.820312 143.410156 L 113.339844 143.410156 L 113.339844 83.371094 L 110.21875 83.933594 Z M 111.820312 143.410156 "/>
</g>
<mask id="mask5">
  <g filter="url(#alpha)">
<rect x="0" y="0" width="166" height="151" style="fill:rgb(0%,0%,0%);fill-opacity:0.4;stroke:none;"/>
  </g>
</mask>
<clipPath id="clip6">
  <rect x="0" y="0" width="166" height="151"/>
</clipPath>
<g id="surface20" clip-path="url(#clip6)">
<path style=" stroke:none;fillRule:nonzero;fill:rgb(25.098039%,48.235294%,100%);fill-opacity:1;" d="M 76.460938 72.96875 L 72.378906 53.414062 C 72.261719 52.929688 72.660156 52.449219 73.140625 52.449219 L 78.378906 52.449219 C 78.738281 52.449219 79.058594 52.730469 79.140625 53.089844 L 83.21875 72.648438 C 83.339844 73.128906 82.941406 73.613281 82.460938 73.613281 L 77.21875 73.613281 C 76.859375 73.613281 76.539062 73.332031 76.460938 72.96875 Z M 76.460938 72.96875 "/>
</g>
<mask id="mask6">
  <g filter="url(#alpha)">
<rect x="0" y="0" width="166" height="151" style="fill:rgb(0%,0%,0%);fill-opacity:0.101961;stroke:none;"/>
  </g>
</mask>
<clipPath id="clip7">
  <rect x="0" y="0" width="166" height="151"/>
</clipPath>
<g id="surface23" clip-path="url(#clip7)">
<path style=" stroke:none;fillRule:nonzero;fill:rgb(25.098039%,48.235294%,100%);fill-opacity:1;" d="M 37.460938 45.703125 L 33.378906 26.183594 C 33.261719 25.703125 33.660156 25.21875 34.140625 25.21875 L 67.179688 25.21875 C 67.539062 25.21875 67.859375 25.5 67.941406 25.863281 L 72.058594 45.378906 C 72.179688 45.863281 71.78125 46.34375 71.300781 46.34375 L 38.261719 46.34375 C 37.859375 46.34375 37.539062 46.101562 37.460938 45.703125 Z M 37.460938 45.703125 "/>
</g>
<mask id="mask7">
  <g filter="url(#alpha)">
<rect x="0" y="0" width="166" height="151" style="fill:rgb(0%,0%,0%);fill-opacity:0.4;stroke:none;"/>
  </g>
</mask>
<clipPath id="clip8">
  <rect x="0" y="0" width="166" height="151"/>
</clipPath>
<g id="surface26" clip-path="url(#clip8)">
<path style=" stroke:none;fillRule:nonzero;fill:rgb(25.098039%,48.235294%,100%);fill-opacity:1;" d="M 48.101562 27.066406 L 45.300781 27.066406 L 45.140625 26.304688 L 47.941406 26.304688 Z M 48.101562 27.066406 "/>
</g>
<mask id="mask8">
  <g filter="url(#alpha)">
<rect x="0" y="0" width="166" height="151" style="fill:rgb(0%,0%,0%);fill-opacity:0.4;stroke:none;"/>
  </g>
</mask>
<clipPath id="clip9">
  <rect x="0" y="0" width="166" height="151"/>
</clipPath>
<g id="surface29" clip-path="url(#clip9)">
<path style=" stroke:none;fillRule:nonzero;fill:rgb(25.098039%,48.235294%,100%);fill-opacity:1;" d="M 52.738281 27.066406 L 48.421875 27.066406 L 48.300781 26.304688 L 52.578125 26.304688 Z M 52.738281 27.066406 "/>
</g>
<mask id="mask9">
  <g filter="url(#alpha)">
<rect x="0" y="0" width="166" height="151" style="fill:rgb(0%,0%,0%);fill-opacity:0.4;stroke:none;"/>
  </g>
</mask>
<clipPath id="clip10">
  <rect x="0" y="0" width="166" height="151"/>
</clipPath>
<g id="surface32" clip-path="url(#clip10)">
<path style=" stroke:none;fillRule:nonzero;fill:rgb(25.098039%,48.235294%,100%);fill-opacity:1;" d="M 54.578125 28.273438 L 45.539062 28.273438 L 45.421875 27.507812 L 54.421875 27.507812 Z M 54.578125 28.273438 "/>
</g>
<mask id="mask10">
  <g filter="url(#alpha)">
<rect x="0" y="0" width="166" height="151" style="fill:rgb(0%,0%,0%);fill-opacity:0.4;stroke:none;"/>
  </g>
</mask>
<clipPath id="clip11">
  <rect x="0" y="0" width="166" height="151"/>
</clipPath>
<g id="surface35" clip-path="url(#clip11)">
<path style=" stroke:none;fillRule:nonzero;fill:rgb(25.098039%,48.235294%,100%);fill-opacity:1;" d="M 53.460938 29.4375 L 45.820312 29.4375 L 45.660156 28.714844 L 53.300781 28.714844 Z M 53.460938 29.4375 "/>
</g>
<mask id="mask11">
  <g filter="url(#alpha)">
<rect x="0" y="0" width="166" height="151" style="fill:rgb(0%,0%,0%);fill-opacity:0.4;stroke:none;"/>
  </g>
</mask>
<clipPath id="clip12">
  <rect x="0" y="0" width="166" height="151"/>
</clipPath>
<g id="surface38" clip-path="url(#clip12)">
<path style=" stroke:none;fillRule:nonzero;fill:rgb(25.098039%,48.235294%,100%);fill-opacity:1;" d="M 58.5 42.128906 L 53.660156 42.128906 L 53.820312 42.890625 L 58.660156 42.890625 Z M 58.5 42.128906 "/>
</g>
<mask id="mask12">
  <g filter="url(#alpha)">
<rect x="0" y="0" width="166" height="151" style="fill:rgb(0%,0%,0%);fill-opacity:0.4;stroke:none;"/>
  </g>
</mask>
<clipPath id="clip13">
  <rect x="0" y="0" width="166" height="151"/>
</clipPath>
<g id="surface41" clip-path="url(#clip13)">
<path style=" stroke:none;fillRule:nonzero;fill:rgb(25.098039%,48.235294%,100%);fill-opacity:1;" d="M 55.300781 43.332031 L 48.699219 43.332031 L 48.859375 44.09375 L 55.460938 44.09375 Z M 55.300781 43.332031 "/>
</g>
<mask id="mask13">
  <g filter="url(#alpha)">
<rect x="0" y="0" width="166" height="151" style="fill:rgb(0%,0%,0%);fill-opacity:0.4;stroke:none;"/>
  </g>
</mask>
<clipPath id="clip14">
  <rect x="0" y="0" width="166" height="151"/>
</clipPath>
<g id="surface44" clip-path="url(#clip14)">
<path style=" stroke:none;fillRule:nonzero;fill:rgb(25.098039%,48.235294%,100%);fill-opacity:1;" d="M 53.300781 42.128906 L 48.460938 42.128906 L 48.578125 42.890625 L 53.460938 42.890625 Z M 53.300781 42.128906 "/>
</g>
<mask id="mask14">
  <g filter="url(#alpha)">
<rect x="0" y="0" width="166" height="151" style="fill:rgb(0%,0%,0%);fill-opacity:0.4;stroke:none;"/>
  </g>
</mask>
<clipPath id="clip15">
  <rect x="0" y="0" width="166" height="151"/>
</clipPath>
<g id="surface47" clip-path="url(#clip15)">
<path style=" stroke:none;fillRule:nonzero;fill:rgb(25.098039%,48.235294%,100%);fill-opacity:1;" d="M 57.898438 40.960938 L 48.179688 40.960938 L 48.339844 41.6875 L 58.058594 41.6875 Z M 57.898438 40.960938 "/>
</g>
<mask id="mask15">
  <g filter="url(#alpha)">
<rect x="0" y="0" width="166" height="151" style="fill:rgb(0%,0%,0%);fill-opacity:0.4;stroke:none;"/>
  </g>
</mask>
<clipPath id="clip16">
  <rect x="0" y="0" width="166" height="151"/>
</clipPath>
<g id="surface50" clip-path="url(#clip16)">
<path style=" stroke:none;fillRule:nonzero;fill:rgb(25.098039%,48.235294%,100%);fill-opacity:1;" d="M 52.859375 23.132812 L 44.179688 23.132812 L 44.339844 23.894531 L 53.019531 23.894531 Z M 52.859375 23.132812 "/>
</g>
<mask id="mask16">
  <g filter="url(#alpha)">
<rect x="0" y="0" width="166" height="151" style="fill:rgb(0%,0%,0%);fill-opacity:0.4;stroke:none;"/>
  </g>
</mask>
<clipPath id="clip17">
  <rect x="0" y="0" width="166" height="151"/>
</clipPath>
<g id="surface53" clip-path="url(#clip17)">
<path style=" stroke:none;fillRule:nonzero;fill:rgb(25.098039%,48.235294%,100%);fill-opacity:1;" d="M 51.140625 21.925781 L 43.941406 21.925781 L 44.101562 22.691406 L 51.261719 22.691406 Z M 51.140625 21.925781 "/>
</g>
<mask id="mask17">
  <g filter="url(#alpha)">
<rect x="0" y="0" width="166" height="151" style="fill:rgb(0%,0%,0%);fill-opacity:0.4;stroke:none;"/>
  </g>
</mask>
<clipPath id="clip18">
  <rect x="0" y="0" width="166" height="151"/>
</clipPath>
<g id="surface56" clip-path="url(#clip18)">
<path style=" stroke:none;fillRule:nonzero;fill:rgb(25.098039%,48.235294%,100%);fill-opacity:1;" d="M 51.578125 20.722656 L 43.699219 20.722656 L 43.859375 21.484375 L 51.738281 21.484375 Z M 51.578125 20.722656 "/>
</g>
<mask id="mask18">
  <g filter="url(#alpha)">
<rect x="0" y="0" width="166" height="151" style="fill:rgb(0%,0%,0%);fill-opacity:0.4;stroke:none;"/>
  </g>
</mask>
<clipPath id="clip19">
  <rect x="0" y="0" width="166" height="151"/>
</clipPath>
<g id="surface59" clip-path="url(#clip19)">
<path style=" stroke:none;fillRule:nonzero;fill:rgb(25.098039%,48.235294%,100%);fill-opacity:1;" d="M 57.460938 34.214844 L 46.78125 34.214844 L 46.941406 34.980469 L 57.621094 34.980469 Z M 57.460938 34.214844 "/>
</g>
<mask id="mask19">
  <g filter="url(#alpha)">
<rect x="0" y="0" width="166" height="151" style="fill:rgb(0%,0%,0%);fill-opacity:0.4;stroke:none;"/>
  </g>
</mask>
<clipPath id="clip20">
  <rect x="0" y="0" width="166" height="151"/>
</clipPath>
<g id="surface62" clip-path="url(#clip20)">
<path style=" stroke:none;fillRule:nonzero;fill:rgb(25.098039%,48.235294%,100%);fill-opacity:1;" d="M 50.980469 33.050781 L 46.539062 33.050781 L 46.699219 33.773438 L 51.140625 33.773438 Z M 50.980469 33.050781 "/>
</g>
<mask id="mask20">
  <g filter="url(#alpha)">
<rect x="0" y="0" width="166" height="151" style="fill:rgb(0%,0%,0%);fill-opacity:0.4;stroke:none;"/>
  </g>
</mask>
<clipPath id="clip21">
  <rect x="0" y="0" width="166" height="151"/>
</clipPath>
<g id="surface65" clip-path="url(#clip21)">
<path style=" stroke:none;fillRule:nonzero;fill:rgb(25.098039%,48.235294%,100%);fill-opacity:1;" d="M 55.738281 33.050781 L 51.339844 33.050781 L 51.5 33.773438 L 55.898438 33.773438 Z M 55.738281 33.050781 "/>
</g>
<mask id="mask21">
  <g filter="url(#alpha)">
<rect x="0" y="0" width="166" height="151" style="fill:rgb(0%,0%,0%);fill-opacity:0.4;stroke:none;"/>
  </g>
</mask>
<clipPath id="clip22">
  <rect x="0" y="0" width="166" height="151"/>
</clipPath>
<g id="surface68" clip-path="url(#clip22)">
<path style=" stroke:none;fillRule:nonzero;fill:rgb(25.098039%,48.235294%,100%);fill-opacity:1;" d="M 56.019531 31.847656 L 46.300781 31.847656 L 46.460938 32.570312 L 56.179688 32.570312 Z M 56.019531 31.847656 "/>
</g>
<mask id="mask22">
  <g filter="url(#alpha)">
<rect x="0" y="0" width="166" height="151" style="fill:rgb(0%,0%,0%);fill-opacity:0.4;stroke:none;"/>
  </g>
</mask>
<clipPath id="clip23">
  <rect x="0" y="0" width="166" height="151"/>
</clipPath>
<g id="surface71" clip-path="url(#clip23)">
<path style=" stroke:none;fillRule:nonzero;fill:rgb(25.098039%,48.235294%,100%);fill-opacity:1;" d="M 56.019531 37.832031 L 47.539062 37.832031 L 47.699219 38.554688 L 56.179688 38.554688 Z M 56.019531 37.832031 "/>
</g>
<mask id="mask23">
  <g filter="url(#alpha)">
<rect x="0" y="0" width="166" height="151" style="fill:rgb(0%,0%,0%);fill-opacity:0.4;stroke:none;"/>
  </g>
</mask>
<clipPath id="clip24">
  <rect x="0" y="0" width="166" height="151"/>
</clipPath>
<g id="surface74" clip-path="url(#clip24)">
<path style=" stroke:none;fillRule:nonzero;fill:rgb(25.098039%,48.235294%,100%);fill-opacity:1;" d="M 49.738281 36.625 L 47.300781 36.625 L 47.460938 37.347656 L 49.898438 37.347656 Z M 49.738281 36.625 "/>
</g>
<mask id="mask24">
  <g filter="url(#alpha)">
<rect x="0" y="0" width="166" height="151" style="fill:rgb(0%,0%,0%);fill-opacity:0.4;stroke:none;"/>
  </g>
</mask>
<clipPath id="clip25">
  <rect x="0" y="0" width="166" height="151"/>
</clipPath>
<g id="surface77" clip-path="url(#clip25)">
<path style=" stroke:none;fillRule:nonzero;fill:rgb(25.098039%,48.235294%,100%);fill-opacity:1;" d="M 53.621094 36.625 L 50.101562 36.625 L 50.261719 37.347656 L 53.78125 37.347656 Z M 53.621094 36.625 "/>
</g>
<mask id="mask25">
  <g filter="url(#alpha)">
<rect x="0" y="0" width="166" height="151" style="fill:rgb(0%,0%,0%);fill-opacity:0.4;stroke:none;"/>
  </g>
</mask>
<clipPath id="clip26">
  <rect x="0" y="0" width="166" height="151"/>
</clipPath>
<g id="surface80" clip-path="url(#clip26)">
<path style=" stroke:none;fillRule:nonzero;fill:rgb(25.098039%,48.235294%,100%);fill-opacity:1;" d="M 56.78125 35.421875 L 47.058594 35.421875 L 47.21875 36.183594 L 56.941406 36.183594 Z M 56.78125 35.421875 "/>
</g>
<mask id="mask26">
  <g filter="url(#alpha)">
<rect x="0" y="0" width="166" height="151" style="fill:rgb(0%,0%,0%);fill-opacity:0.4;stroke:none;"/>
  </g>
</mask>
<clipPath id="clip27">
  <rect x="0" y="0" width="166" height="151"/>
</clipPath>
<g id="surface83" clip-path="url(#clip27)">
<path style=" stroke:none;fillRule:nonzero;fill:rgb(25.098039%,48.235294%,100%);fill-opacity:1;" d="M 64.421875 35.21875 L 60.941406 35.21875 L 60.78125 34.457031 L 64.261719 34.457031 Z M 64.421875 35.21875 "/>
</g>
<mask id="mask27">
  <g filter="url(#alpha)">
<rect x="0" y="0" width="166" height="151" style="fill:rgb(0%,0%,0%);fill-opacity:0.4;stroke:none;"/>
  </g>
</mask>
<clipPath id="clip28">
  <rect x="0" y="0" width="166" height="151"/>
</clipPath>
<g id="surface86" clip-path="url(#clip28)">
<path style=" stroke:none;fillRule:nonzero;fill:rgb(25.098039%,48.235294%,100%);fill-opacity:1;" d="M 70.21875 35.21875 L 64.859375 35.21875 L 64.699219 34.457031 L 70.058594 34.457031 Z M 70.21875 35.21875 "/>
</g>
<mask id="mask28">
  <g filter="url(#alpha)">
<rect x="0" y="0" width="166" height="151" style="fill:rgb(0%,0%,0%);fill-opacity:0.4;stroke:none;"/>
  </g>
</mask>
<clipPath id="clip29">
  <rect x="0" y="0" width="166" height="151"/>
</clipPath>
<g id="surface89" clip-path="url(#clip29)">
<path style=" stroke:none;fillRule:nonzero;fill:rgb(25.098039%,48.235294%,100%);fill-opacity:1;" d="M 72.5 36.425781 L 61.179688 36.425781 L 61.058594 35.660156 L 72.339844 35.660156 Z M 72.5 36.425781 "/>
</g>
<mask id="mask29">
  <g filter="url(#alpha)">
<rect x="0" y="0" width="166" height="151" style="fill:rgb(0%,0%,0%);fill-opacity:0.4;stroke:none;"/>
  </g>
</mask>
<clipPath id="clip30">
  <rect x="0" y="0" width="166" height="151"/>
</clipPath>
<g id="surface92" clip-path="url(#clip30)">
<path style=" stroke:none;fillRule:nonzero;fill:rgb(25.098039%,48.235294%,100%);fill-opacity:1;" d="M 71.019531 37.628906 L 61.460938 37.628906 L 61.300781 36.867188 L 70.859375 36.867188 Z M 71.019531 37.628906 "/>
</g>
<mask id="mask30">
  <g filter="url(#alpha)">
<rect x="0" y="0" width="166" height="151" style="fill:rgb(0%,0%,0%);fill-opacity:0.4;stroke:none;"/>
  </g>
</mask>
<clipPath id="clip31">
  <rect x="0" y="0" width="166" height="151"/>
</clipPath>
<g id="surface95" clip-path="url(#clip31)">
<path style=" stroke:none;fillRule:nonzero;fill:rgb(25.098039%,48.235294%,100%);fill-opacity:1;" d="M 75.300781 30.480469 L 64.460938 30.480469 L 64.621094 31.203125 L 75.460938 31.203125 Z M 75.300781 30.480469 "/>
</g>
<mask id="mask31">
  <g filter="url(#alpha)">
<rect x="0" y="0" width="166" height="151" style="fill:rgb(0%,0%,0%);fill-opacity:0.4;stroke:none;"/>
  </g>
</mask>
<clipPath id="clip32">
  <rect x="0" y="0" width="166" height="151"/>
</clipPath>
<g id="surface98" clip-path="url(#clip32)">
<path style=" stroke:none;fillRule:nonzero;fill:rgb(25.098039%,48.235294%,100%);fill-opacity:1;" d="M 73.179688 29.277344 L 64.21875 29.277344 L 64.378906 30.039062 L 73.339844 30.039062 Z M 73.179688 29.277344 "/>
</g>
<mask id="mask32">
  <g filter="url(#alpha)">
<rect x="0" y="0" width="166" height="151" style="fill:rgb(0%,0%,0%);fill-opacity:0.4;stroke:none;"/>
  </g>
</mask>
<clipPath id="clip33">
  <rect x="0" y="0" width="166" height="151"/>
</clipPath>
<g id="surface101" clip-path="url(#clip33)">
<path style=" stroke:none;fillRule:nonzero;fill:rgb(25.098039%,48.235294%,100%);fill-opacity:1;" d="M 75.78125 42.410156 L 62.421875 42.410156 L 62.578125 43.132812 L 75.941406 43.132812 Z M 75.78125 42.410156 "/>
</g>
<mask id="mask33">
  <g filter="url(#alpha)">
<rect x="0" y="0" width="166" height="151" style="fill:rgb(0%,0%,0%);fill-opacity:0.4;stroke:none;"/>
  </g>
</mask>
<clipPath id="clip34">
  <rect x="0" y="0" width="166" height="151"/>
</clipPath>
<g id="surface104" clip-path="url(#clip34)">
<path style=" stroke:none;fillRule:nonzero;fill:rgb(25.098039%,48.235294%,100%);fill-opacity:1;" d="M 67.699219 41.203125 L 62.179688 41.203125 L 62.339844 41.964844 L 67.859375 41.964844 Z M 67.699219 41.203125 "/>
</g>
<mask id="mask34">
  <g filter="url(#alpha)">
<rect x="0" y="0" width="166" height="151" style="fill:rgb(0%,0%,0%);fill-opacity:0.4;stroke:none;"/>
  </g>
</mask>
<clipPath id="clip35">
  <rect x="0" y="0" width="166" height="151"/>
</clipPath>
<g id="surface107" clip-path="url(#clip35)">
<path style=" stroke:none;fillRule:nonzero;fill:rgb(25.098039%,48.235294%,100%);fill-opacity:1;" d="M 73.699219 41.203125 L 68.179688 41.203125 L 68.339844 41.964844 L 73.859375 41.964844 Z M 73.699219 41.203125 "/>
</g>
<mask id="mask35">
  <g filter="url(#alpha)">
<rect x="0" y="0" width="166" height="151" style="fill:rgb(0%,0%,0%);fill-opacity:0.4;stroke:none;"/>
  </g>
</mask>
<clipPath id="clip36">
  <rect x="0" y="0" width="166" height="151"/>
</clipPath>
<g id="surface110" clip-path="url(#clip36)">
<path style=" stroke:none;fillRule:nonzero;fill:rgb(25.098039%,48.235294%,100%);fill-opacity:1;" d="M 74.101562 40 L 61.941406 40 L 62.101562 40.761719 L 74.261719 40.761719 Z M 74.101562 40 "/>
</g>
<mask id="mask36">
  <g filter="url(#alpha)">
<rect x="0" y="0" width="166" height="151" style="fill:rgb(0%,0%,0%);fill-opacity:0.4;stroke:none;"/>
  </g>
</mask>
<clipPath id="clip37">
  <rect x="0" y="0" width="166" height="151"/>
</clipPath>
<g id="surface113" clip-path="url(#clip37)">
<path style=" stroke:none;fillRule:nonzero;fill:rgb(25.098039%,48.235294%,100%);fill-opacity:1;" d="M 73.78125 45.984375 L 63.179688 45.984375 L 63.339844 46.707031 L 73.941406 46.707031 Z M 73.78125 45.984375 "/>
</g>
<mask id="mask37">
  <g filter="url(#alpha)">
<rect x="0" y="0" width="166" height="151" style="fill:rgb(0%,0%,0%);fill-opacity:0.4;stroke:none;"/>
  </g>
</mask>
<clipPath id="clip38">
  <rect x="0" y="0" width="166" height="151"/>
</clipPath>
<g id="surface116" clip-path="url(#clip38)">
<path style=" stroke:none;fillRule:nonzero;fill:rgb(25.098039%,48.235294%,100%);fill-opacity:1;" d="M 66.019531 44.777344 L 62.941406 44.777344 L 63.101562 45.539062 L 66.179688 45.539062 Z M 66.019531 44.777344 "/>
</g>
<mask id="mask38">
  <g filter="url(#alpha)">
<rect x="0" y="0" width="166" height="151" style="fill:rgb(0%,0%,0%);fill-opacity:0.4;stroke:none;"/>
  </g>
</mask>
<clipPath id="clip39">
  <rect x="0" y="0" width="166" height="151"/>
</clipPath>
<g id="surface119" clip-path="url(#clip39)">
<path style=" stroke:none;fillRule:nonzero;fill:rgb(25.098039%,48.235294%,100%);fill-opacity:1;" d="M 70.859375 44.777344 L 66.460938 44.777344 L 66.578125 45.539062 L 70.980469 45.539062 Z M 70.859375 44.777344 "/>
</g>
<mask id="mask39">
  <g filter="url(#alpha)">
<rect x="0" y="0" width="166" height="151" style="fill:rgb(0%,0%,0%);fill-opacity:0.4;stroke:none;"/>
  </g>
</mask>
<clipPath id="clip40">
  <rect x="0" y="0" width="166" height="151"/>
</clipPath>
<g id="surface122" clip-path="url(#clip40)">
<path style=" stroke:none;fillRule:nonzero;fill:rgb(25.098039%,48.235294%,100%);fill-opacity:1;" d="M 74.859375 43.574219 L 62.699219 43.574219 L 62.859375 44.335938 L 75.019531 44.335938 Z M 74.859375 43.574219 "/>
</g>
<mask id="mask40">
  <g filter="url(#alpha)">
<rect x="0" y="0" width="166" height="151" style="fill:rgb(0%,0%,0%);fill-opacity:0.4;stroke:none;"/>
  </g>
</mask>
<clipPath id="clip41">
  <rect x="0" y="0" width="166" height="151"/>
</clipPath>
<g id="surface125" clip-path="url(#clip41)">
<path style=" stroke:none;fillRule:nonzero;fill:rgb(25.098039%,48.235294%,100%);fill-opacity:1;" d="M 42.421875 46.90625 L 34.140625 46.90625 L 34.300781 47.667969 L 42.578125 47.667969 Z M 42.421875 46.90625 "/>
</g>
<mask id="mask41">
  <g filter="url(#alpha)">
<rect x="0" y="0" width="166" height="151" style="fill:rgb(0%,0%,0%);fill-opacity:0.4;stroke:none;"/>
  </g>
</mask>
<clipPath id="clip42">
  <rect x="0" y="0" width="166" height="151"/>
</clipPath>
<g id="surface128" clip-path="url(#clip42)">
<path style=" stroke:none;fillRule:nonzero;fill:rgb(25.098039%,48.235294%,100%);fill-opacity:1;" d="M 39.980469 45.703125 L 33.898438 45.703125 L 34.058594 46.464844 L 40.140625 46.464844 Z M 39.980469 45.703125 "/>
</g>
<mask id="mask42">
  <g filter="url(#alpha)">
<rect x="0" y="0" width="166" height="151" style="fill:rgb(0%,0%,0%);fill-opacity:0.4;stroke:none;"/>
  </g>
</mask>
<clipPath id="clip43">
  <rect x="0" y="0" width="166" height="151"/>
</clipPath>
<g id="surface131" clip-path="url(#clip43)">
<path style=" stroke:none;fillRule:nonzero;fill:rgb(25.098039%,48.235294%,100%);fill-opacity:1;" d="M 46.5 45.703125 L 40.421875 45.703125 L 40.578125 46.464844 L 46.660156 46.464844 Z M 46.5 45.703125 "/>
</g>
<mask id="mask43">
  <g filter="url(#alpha)">
<rect x="0" y="0" width="166" height="151" style="fill:rgb(0%,0%,0%);fill-opacity:0.4;stroke:none;"/>
  </g>
</mask>
<clipPath id="clip44">
  <rect x="0" y="0" width="166" height="151"/>
</clipPath>
<g id="surface134" clip-path="url(#clip44)">
<path style=" stroke:none;fillRule:nonzero;fill:rgb(25.098039%,48.235294%,100%);fill-opacity:1;" d="M 45.820312 44.496094 L 33.660156 44.496094 L 33.78125 45.261719 L 45.980469 45.261719 Z M 45.820312 44.496094 "/>
</g>
<mask id="mask44">
  <g filter="url(#alpha)">
<rect x="0" y="0" width="166" height="151" style="fill:rgb(0%,0%,0%);fill-opacity:0.4;stroke:none;"/>
  </g>
</mask>
<clipPath id="clip45">
  <rect x="0" y="0" width="166" height="151"/>
</clipPath>
<g id="surface137" clip-path="url(#clip45)">
<path style=" stroke:none;fillRule:nonzero;fill:rgb(100%,100%,100%);fill-opacity:1;" d="M 138.980469 69.355469 L 133.820312 69.355469 L 134.421875 77.148438 L 138.378906 77.148438 Z M 138.980469 69.355469 "/>
</g>
<mask id="mask45">
  <g filter="url(#alpha)">
<rect x="0" y="0" width="166" height="151" style="fill:rgb(0%,0%,0%);fill-opacity:0.301961;stroke:none;"/>
  </g>
</mask>
<clipPath id="clip46">
  <rect x="0" y="0" width="166" height="151"/>
</clipPath>
<g id="surface140" clip-path="url(#clip46)">
<path style=" stroke:none;fillRule:nonzero;fill:rgb(0%,0%,0%);fill-opacity:1;" d="M 25.421875 60.398438 L 26.019531 60.398438 L 28.941406 77.148438 L 28.339844 77.148438 Z M 25.421875 60.398438 "/>
</g>
<mask id="mask46">
  <g filter="url(#alpha)">
<rect x="0" y="0" width="166" height="151" style="fill:rgb(0%,0%,0%);fill-opacity:0.6;stroke:none;"/>
  </g>
</mask>
<clipPath id="clip47">
  <rect x="0" y="0" width="166" height="151"/>
</clipPath>
<g id="surface143" clip-path="url(#clip47)">
<path style=" stroke:none;fillRule:nonzero;fill:rgb(25.098039%,48.235294%,100%);fill-opacity:1;" d="M 36.941406 75.339844 L 34.621094 62.167969 L 34.941406 62.167969 L 37.261719 75.339844 Z M 36.941406 75.339844 "/>
</g>
<mask id="mask47">
  <g filter="url(#alpha)">
<rect x="0" y="0" width="166" height="151" style="fill:rgb(0%,0%,0%);fill-opacity:0.2;stroke:none;"/>
  </g>
</mask>
<clipPath id="clip48">
  <rect x="0" y="0" width="166" height="151"/>
</clipPath>
<g id="surface146" clip-path="url(#clip48)">
<path style=" stroke:none;fillRule:nonzero;fill:rgb(0%,0%,0%);fill-opacity:1;" d="M 114.261719 52.890625 L 114.140625 54.054688 C 114.101562 54.417969 114.058594 54.777344 114.019531 55.140625 C 113.941406 55.863281 113.820312 56.585938 113.699219 57.308594 C 113.460938 58.753906 113.140625 60.199219 112.78125 61.644531 C 112.421875 63.089844 111.980469 64.535156 111.460938 66.023438 C 111.179688 66.746094 110.898438 67.507812 110.539062 68.230469 C 110.179688 68.996094 109.820312 69.71875 109.339844 70.480469 C 109.21875 70.679688 109.101562 70.882812 108.980469 71.042969 C 108.859375 71.242188 108.699219 71.445312 108.578125 71.644531 C 108.421875 71.84375 108.300781 72.046875 108.101562 72.246094 L 107.820312 72.527344 C 107.738281 72.609375 107.660156 72.730469 107.539062 72.847656 C 106.621094 73.773438 105.660156 74.335938 104.78125 74.738281 C 102.980469 75.539062 101.378906 75.820312 99.820312 75.980469 C 99.019531 76.0625 98.261719 76.101562 97.5 76.140625 C 96.738281 76.183594 95.980469 76.140625 95.261719 76.101562 C 94.5 76.0625 93.78125 75.980469 93.058594 75.902344 C 92.300781 75.820312 91.621094 75.699219 90.820312 75.539062 L 90.941406 71.363281 C 93.5 70.839844 96.179688 70.320312 98.5 69.554688 C 99.058594 69.355469 99.621094 69.15625 100.140625 68.914062 C 100.621094 68.714844 101.101562 68.472656 101.421875 68.230469 C 101.738281 67.988281 101.980469 67.75 102.019531 67.667969 L 102.140625 67.46875 C 102.179688 67.429688 102.21875 67.308594 102.300781 67.226562 C 102.339844 67.148438 102.421875 67.027344 102.460938 66.945312 C 102.5 66.824219 102.578125 66.746094 102.621094 66.625 C 103.019531 65.742188 103.460938 64.617188 103.78125 63.453125 C 104.101562 62.289062 104.421875 61.042969 104.660156 59.757812 C 104.941406 58.511719 105.140625 57.1875 105.378906 55.902344 L 105.699219 53.933594 L 105.980469 52.046875 Z M 114.261719 52.890625 "/>
</g>
<mask id="mask48">
  <g filter="url(#alpha)">
<rect x="0" y="0" width="166" height="151" style="fill:rgb(0%,0%,0%);fill-opacity:0.2;stroke:none;"/>
  </g>
</mask>
<clipPath id="clip49">
  <rect x="0" y="0" width="166" height="151"/>
</clipPath>
<g id="surface149" clip-path="url(#clip49)">
<path style=" stroke:none;fillRule:nonzero;fill:rgb(0%,0%,0%);fill-opacity:1;" d="M 92.179688 65.742188 C 92.378906 66.867188 92.539062 68.070312 92.738281 69.316406 C 94.660156 67.308594 95.261719 61.164062 95.261719 61.164062 Z M 92.179688 65.742188 "/>
</g>
<mask id="mask49">
  <g filter="url(#alpha)">
<rect x="0" y="0" width="166" height="151" style="fill:rgb(0%,0%,0%);fill-opacity:0.2;stroke:none;"/>
  </g>
</mask>
<clipPath id="clip50">
  <rect x="0" y="0" width="166" height="151"/>
</clipPath>
<g id="surface152" clip-path="url(#clip50)">
<path style=" stroke:none;fillRule:nonzero;fill:rgb(0%,0%,0%);fill-opacity:1;" d="M 90.820312 129.835938 L 86.421875 129.835938 L 87.660156 135.457031 L 91.941406 135.058594 Z M 90.820312 129.835938 "/>
</g>
<mask id="mask50">
  <g filter="url(#alpha)">
<rect x="0" y="0" width="166" height="151" style="fill:rgb(0%,0%,0%);fill-opacity:0.501961;stroke:none;"/>
  </g>
</mask>
<clipPath id="clip51">
  <rect x="0" y="0" width="166" height="151"/>
</clipPath>
<g id="surface155" clip-path="url(#clip51)">
<path style=" stroke:none;fillRule:nonzero;fill:rgb(100%,100%,100%);fill-opacity:1;" d="M 100.980469 84.375 C 100.980469 84.375 80.660156 91.765625 80.058594 101.5625 C 78.941406 119.59375 86.300781 133.890625 86.300781 133.890625 L 93.019531 133.167969 C 93.019531 133.167969 91.820312 127.347656 90.941406 111 C 89.820312 90.480469 124.539062 111.484375 117.378906 84.335938 Z M 100.980469 84.375 "/>
</g>
<mask id="mask51">
  <g filter="url(#alpha)">
<rect x="0" y="0" width="166" height="151" style="fill:rgb(0%,0%,0%);fill-opacity:0.2;stroke:none;"/>
  </g>
</mask>
<clipPath id="clip52">
  <rect x="0" y="0" width="166" height="151"/>
</clipPath>
<g id="surface158" clip-path="url(#clip52)">
<path style=" stroke:none;fillRule:nonzero;fill:rgb(0%,0%,0%);fill-opacity:1;" d="M 68.421875 130.316406 L 69.140625 135.859375 L 73.460938 135.578125 L 72.820312 130.316406 Z M 68.421875 130.316406 "/>
</g>
<mask id="mask52">
  <g filter="url(#alpha)">
<rect x="0" y="0" width="166" height="151" style="fill:rgb(0%,0%,0%);fill-opacity:0.501961;stroke:none;"/>
  </g>
</mask>
<clipPath id="clip53">
  <rect x="0" y="0" width="166" height="151"/>
</clipPath>
<g id="surface161" clip-path="url(#clip53)">
<path style=" stroke:none;fillRule:nonzero;fill:rgb(100%,100%,100%);fill-opacity:1;" d="M 93.980469 84.375 C 93.980469 84.375 60.660156 87.347656 61.019531 104.132812 C 61.378906 121.601562 67.898438 133.410156 67.898438 133.410156 L 74.421875 133.410156 C 74.421875 133.410156 73.179688 124.335938 73.421875 107.144531 C 73.5 102.003906 83.859375 100.277344 93.980469 99.675781 C 102.738281 99.152344 110.941406 94.132812 114.339844 86.023438 L 115.019531 84.375 Z M 93.980469 84.375 "/>
</g>
<mask id="mask53">
  <g filter="url(#alpha)">
<rect x="0" y="0" width="166" height="151" style="fill:rgb(0%,0%,0%);fill-opacity:0.701961;stroke:none;"/>
  </g>
</mask>
<clipPath id="clip54">
  <rect x="0" y="0" width="166" height="151"/>
</clipPath>
<g id="surface164" clip-path="url(#clip54)">
<path style=" stroke:none;fillRule:nonzero;fill:rgb(100%,100%,100%);fill-opacity:1;" d="M 103.019531 140.117188 L 98.5 140.117188 L 98.5 110.558594 L 103.019531 111 Z M 103.019531 140.117188 "/>
</g>
<mask id="mask54">
  <g filter="url(#alpha)">
<rect x="0" y="0" width="166" height="151" style="fill:rgb(0%,0%,0%);fill-opacity:0.701961;stroke:none;"/>
  </g>
</mask>
<clipPath id="clip55">
  <rect x="0" y="0" width="166" height="151"/>
</clipPath>
<g id="surface167" clip-path="url(#clip55)">
<path style=" stroke:none;fillRule:nonzero;fill:rgb(100%,100%,100%);fill-opacity:1;" d="M 101.898438 140.117188 L 100.820312 140.117188 L 100.820312 110.800781 L 101.898438 110.921875 Z M 101.898438 140.117188 "/>
</g>
</defs>
<g id="surface1">
<path style=" stroke:none;fillRule:nonzero;fill:rgb(92.156863%,92.156863%,92.156863%);fill-opacity:1;" d="M -17.421875 129.875 L 182.578125 129.875 L 182.578125 129.957031 L -17.421875 129.957031 Z M -17.421875 129.875 "/>
<path style=" stroke:none;fillRule:nonzero;fill:rgb(92.156863%,92.156863%,92.156863%);fill-opacity:1;" d="M 52.378906 133.691406 L 62.78125 133.691406 L 62.78125 133.773438 L 52.378906 133.773438 Z M 52.378906 133.691406 "/>
<path style=" stroke:none;fillRule:nonzero;fill:rgb(92.156863%,92.156863%,92.156863%);fill-opacity:1;" d="M 3.578125 132.605469 L 25.21875 132.605469 L 25.21875 132.6875 L 3.578125 132.6875 Z M 3.578125 132.605469 "/>
<path style=" stroke:none;fillRule:nonzero;fill:rgb(92.156863%,92.156863%,92.156863%);fill-opacity:1;" d="M 41.460938 137.425781 L 51.980469 137.425781 L 51.980469 137.507812 L 41.460938 137.507812 Z M 41.460938 137.425781 "/>
<path style=" stroke:none;fillRule:nonzero;fill:rgb(92.156863%,92.156863%,92.156863%);fill-opacity:1;" d="M 85.898438 136.742188 L 101.421875 136.742188 L 101.421875 136.824219 L 85.898438 136.824219 Z M 85.898438 136.742188 "/>
<path style=" stroke:none;fillRule:nonzero;fill:rgb(92.156863%,92.156863%,92.156863%);fill-opacity:1;" d="M 104.980469 136.742188 L 109.261719 136.742188 L 109.261719 136.824219 L 104.980469 136.824219 Z M 104.980469 136.742188 "/>
<path style=" stroke:none;fillRule:nonzero;fill:rgb(92.156863%,92.156863%,92.156863%);fill-opacity:1;" d="M 140.738281 135.058594 L 162.578125 135.058594 L 162.578125 135.136719 L 140.738281 135.136719 Z M 140.738281 135.058594 "/>
<path style=" stroke:none;fillRule:nonzero;fill:rgb(94.117647%,94.117647%,94.117647%);fill-opacity:1;" d="M 153.273438 126.292969 L 134.996094 126.292969 L 134.996094 75.890625 L 153.273438 75.890625 Z M 153.273438 126.292969 "/>
<path style=" stroke:none;fillRule:nonzero;fill:rgb(94.117647%,94.117647%,94.117647%);fill-opacity:1;" d="M 149.761719 129.886719 L 55.28125 129.886719 L 55.28125 126.3125 L 149.761719 126.3125 Z M 149.761719 129.886719 "/>
<path style=" stroke:none;fillRule:nonzero;fill:rgb(96.078431%,96.078431%,96.078431%);fill-opacity:1;" d="M 51.78125 75.941406 L 135.019531 75.941406 L 135.019531 126.34375 L 51.78125 126.34375 Z M 51.78125 75.941406 "/>
<path style=" stroke:none;fillRule:nonzero;fill:rgb(94.117647%,94.117647%,94.117647%);fill-opacity:1;" d="M 51.78125 79.316406 L 135.339844 79.316406 L 135.339844 97.75 L 51.78125 97.75 Z M 51.78125 79.316406 "/>
<path style=" stroke:none;fillRule:nonzero;fill:rgb(94.117647%,94.117647%,94.117647%);fill-opacity:1;" d="M 51.78125 101.121094 L 135.339844 101.121094 L 135.339844 119.554688 L 51.78125 119.554688 Z M 51.78125 101.121094 "/>
<path style=" stroke:none;fillRule:nonzero;fill:rgb(90.196078%,90.196078%,90.196078%);fill-opacity:1;" d="M 138.171875 97.796875 L 135.011719 97.796875 L 135.011719 79.363281 L 138.171875 79.363281 Z M 138.171875 97.796875 "/>
<path style=" stroke:none;fillRule:nonzero;fill:rgb(90.196078%,90.196078%,90.196078%);fill-opacity:1;" d="M 138.171875 119.601562 L 135.011719 119.601562 L 135.011719 101.171875 L 138.171875 101.171875 Z M 138.171875 119.601562 "/>
<path style=" stroke:none;fillRule:nonzero;fill:rgb(94.117647%,94.117647%,94.117647%);fill-opacity:1;" d="M 135.027344 75.933594 L 49.347656 75.933594 L 49.347656 72.84375 L 135.027344 72.84375 Z M 135.027344 75.933594 "/>
<path style=" stroke:none;fillRule:nonzero;fill:rgb(90.196078%,90.196078%,90.196078%);fill-opacity:1;" d="M 135.019531 72.808594 L 155.820312 72.808594 L 155.820312 75.902344 L 135.019531 75.902344 Z M 135.019531 72.808594 "/>
<path style=" stroke:none;fillRule:nonzero;fill:rgb(94.117647%,94.117647%,94.117647%);fill-opacity:1;" d="M 156.8125 63.335938 L 113.855469 63.335938 L 113.855469 9.121094 L 156.8125 9.121094 Z M 156.8125 63.335938 "/>
<path style=" stroke:none;fillRule:nonzero;fill:rgb(96.078431%,96.078431%,96.078431%);fill-opacity:1;" d="M 155.160156 63.335938 L 104.359375 63.335938 L 104.359375 9.121094 L 155.160156 9.121094 Z M 155.160156 63.335938 "/>
<path style=" stroke:none;fillRule:nonzero;fill:rgb(100%,100%,100%);fill-opacity:1;" d="M 108.609375 59.066406 L 108.609375 13.367188 L 150.886719 13.367188 L 150.886719 59.066406 Z M 108.609375 59.066406 "/>
<path style=" stroke:none;fillRule:nonzero;fill:rgb(90.196078%,90.196078%,90.196078%);fill-opacity:1;" d="M 134.460938 41.164062 L 142.539062 37.386719 L 142.539062 35.019531 L 134.460938 31.285156 L 134.460938 34.136719 L 139.378906 36.265625 L 134.460938 38.351562 Z M 134.460938 41.164062 "/>
<path style=" stroke:none;fillRule:nonzero;fill:rgb(90.196078%,90.196078%,90.196078%);fill-opacity:1;" d="M 129.179688 30.160156 L 127.699219 30.160156 L 130.300781 42.246094 L 131.78125 42.246094 Z M 129.179688 30.160156 "/>
<path style=" stroke:none;fillRule:nonzero;fill:rgb(90.196078%,90.196078%,90.196078%);fill-opacity:1;" d="M 125.101562 38.351562 L 120.179688 36.222656 L 125.101562 34.09375 L 125.101562 31.246094 L 117.019531 35.019531 L 117.019531 37.386719 L 125.101562 41.164062 Z M 125.101562 38.351562 "/>
<path style=" stroke:none;fillRule:nonzero;fill:rgb(94.117647%,94.117647%,94.117647%);fill-opacity:1;" d="M 32.316406 129.882812 L 29.515625 129.882812 L 29.515625 37.839844 L 32.316406 37.839844 Z M 32.316406 129.882812 "/>
<path style=" stroke:none;fillRule:nonzero;fill:rgb(94.117647%,94.117647%,94.117647%);fill-opacity:1;" d="M 28.898438 129.234375 L 28.820312 128.832031 C 28.859375 128.832031 29.578125 128.671875 30.140625 127.667969 C 30.859375 126.382812 31.300781 123.609375 29.300781 117.789062 C 26.179688 108.832031 28.019531 101.605469 31.78125 87.1875 C 32.421875 84.695312 33.179688 81.84375 33.941406 78.753906 C 36.820312 67.226562 34.140625 60.117188 32.019531 54.375 C 30.378906 49.917969 29.058594 46.382812 30.738281 42.328125 L 31.101562 42.488281 C 29.5 46.425781 30.78125 49.878906 32.378906 54.253906 C 34.539062 60.039062 37.21875 67.265625 34.300781 78.875 C 33.539062 81.964844 32.78125 84.777344 32.140625 87.308594 C 28.421875 101.644531 26.578125 108.832031 29.660156 117.667969 C 31.738281 123.652344 31.261719 126.542969 30.460938 127.910156 C 29.820312 129.03125 28.941406 129.234375 28.898438 129.234375 Z M 28.898438 129.234375 "/>
<path style=" stroke:none;fillRule:nonzero;fill:rgb(94.117647%,94.117647%,94.117647%);fill-opacity:1;" d="M 25.78125 129.875 L 35.980469 129.875 L 33.140625 128.1875 L 28.621094 128.1875 Z M 25.78125 129.875 "/>
<path style=" stroke:none;fillRule:nonzero;fill:rgb(96.078431%,96.078431%,96.078431%);fill-opacity:1;" d="M 10.699219 49.558594 L 51.058594 49.558594 L 46.621094 15.542969 L 15.140625 15.542969 Z M 10.699219 49.558594 "/>
<path style=" stroke:none;fillRule:nonzero;fill:rgb(94.117647%,94.117647%,94.117647%);fill-opacity:1;" d="M 70.539062 55.179688 L 92.101562 55.179688 L 89.261719 72.808594 L 73.378906 72.808594 Z M 70.539062 55.179688 "/>
<path style=" stroke:none;fillRule:nonzero;fill:rgb(87.843137%,87.843137%,87.843137%);fill-opacity:1;" d="M 79.179688 60.921875 C 85.058594 58.792969 89.539062 55.582031 84.5 49.113281 C 79.460938 42.648438 71.660156 42.648438 66.421875 45.539062 C 59.738281 49.195312 61.058594 59.796875 61.058594 59.796875 C 61.058594 59.796875 73.339844 63.050781 79.179688 60.921875 Z M 79.179688 60.921875 "/>
<path style=" stroke:none;fillRule:nonzero;fill:rgb(90.196078%,90.196078%,90.196078%);fill-opacity:1;" d="M 84.898438 55.019531 C 80.421875 51.964844 77.21875 48.390625 82.421875 44.65625 C 87.621094 40.921875 94.058594 42.808594 97.941406 46.304688 C 102.859375 50.761719 100.019531 58.550781 100.019531 58.550781 C 100.019531 58.550781 89.378906 58.070312 84.898438 55.019531 Z M 84.898438 55.019531 "/>
<path style=" stroke:none;fillRule:nonzero;fill:rgb(94.117647%,94.117647%,94.117647%);fill-opacity:1;" d="M 76.980469 47.226562 C 82.21875 46.90625 86.660156 45.539062 84.140625 39.796875 C 81.660156 34.09375 75.339844 32.488281 70.421875 33.453125 C 64.140625 34.699219 62.660156 42.609375 62.660156 42.609375 C 62.660156 42.609375 71.738281 47.550781 76.980469 47.226562 Z M 76.980469 47.226562 "/>
<path style=" stroke:none;fillRule:nonzero;fill:rgb(92.156863%,92.156863%,92.156863%);fill-opacity:1;" d="M 83.578125 43.855469 C 79.21875 42.449219 75.78125 40.320312 79.101562 36.023438 C 82.421875 31.726562 88.101562 31.765625 92.058594 33.652344 C 97.101562 36.0625 96.660156 43.089844 96.660156 43.089844 C 96.660156 43.089844 87.980469 45.261719 83.578125 43.855469 Z M 83.578125 43.855469 "/>
<path style=" stroke:none;fillRule:nonzero;fill:rgb(96.078431%,96.078431%,96.078431%);fill-opacity:1;" d="M 75.378906 36.546875 C 79.738281 37.992188 83.738281 38.3125 83.578125 32.851562 C 83.421875 27.429688 78.820312 24.097656 74.5 23.253906 C 69.019531 22.25 65.261719 28.152344 65.261719 28.152344 C 65.261719 28.152344 71.019531 35.097656 75.378906 36.546875 Z M 75.378906 36.546875 "/>
<path style=" stroke:none;fillRule:nonzero;fill:rgb(98.039216%,98.039216%,98.039216%);fill-opacity:1;" d="M 86.460938 34.214844 C 83.339844 34.417969 80.621094 33.976562 81.660156 30.402344 C 82.699219 26.828125 86.300781 25.421875 89.261719 25.621094 C 93.058594 25.863281 94.539062 30.402344 94.539062 30.402344 C 94.539062 30.402344 89.578125 33.976562 86.460938 34.214844 Z M 86.460938 34.214844 "/>
<path style=" stroke:none;fillRule:nonzero;fill:rgb(96.078431%,96.078431%,96.078431%);fill-opacity:1;" d="M 160.140625 143.449219 C 160.140625 140.945312 125.414062 138.910156 82.578125 138.910156 C 39.746094 138.910156 5.019531 140.945312 5.019531 143.449219 C 5.019531 145.957031 39.746094 147.988281 82.578125 147.988281 C 125.414062 147.988281 160.140625 145.957031 160.140625 143.449219 Z M 160.140625 143.449219 "/>
<path style=" stroke:none;fillRule:nonzero;fill:rgb(25.098039%,48.235294%,100%);fill-opacity:1;" d="M 14.378906 77.148438 L 150.300781 77.148438 L 150.300781 82.046875 L 14.378906 82.046875 Z M 14.378906 77.148438 "/>
<use xlink:href="#surface5" mask="url(#mask0)"/>
<path style=" stroke:none;fillRule:nonzero;fill:rgb(25.098039%,48.235294%,100%);fill-opacity:1;" d="M 51.339844 82.046875 L 48.179688 82.046875 L 49.859375 143.410156 L 52.859375 143.410156 L 54.5 82.046875 Z M 51.339844 82.046875 "/>
<use xlink:href="#surface8" mask="url(#mask1)"/>
<path style=" stroke:none;fillRule:nonzero;fill:rgb(25.098039%,48.235294%,100%);fill-opacity:1;" d="M 21.378906 82.046875 L 18.179688 82.046875 L 19.859375 143.410156 L 22.859375 143.410156 L 24.539062 82.046875 Z M 21.378906 82.046875 "/>
<use xlink:href="#surface11" mask="url(#mask2)"/>
<path style=" stroke:none;fillRule:nonzero;fill:rgb(25.098039%,48.235294%,100%);fill-opacity:1;" d="M 143.339844 82.046875 L 140.179688 82.046875 L 141.820312 143.410156 L 144.859375 143.410156 L 146.5 82.046875 Z M 143.339844 82.046875 "/>
<use xlink:href="#surface14" mask="url(#mask3)"/>
<path style=" stroke:none;fillRule:nonzero;fill:rgb(25.098039%,48.235294%,100%);fill-opacity:1;" d="M 113.339844 82.046875 L 110.179688 82.046875 L 111.820312 143.410156 L 114.859375 143.410156 L 116.5 82.046875 Z M 113.339844 82.046875 "/>
<use xlink:href="#surface17" mask="url(#mask4)"/>
<path style=" stroke:none;fillRule:nonzero;fill:rgb(14.901961%,19.607843%,21.960784%);fill-opacity:1;" d="M 78.898438 50.921875 L 46.578125 50.921875 C 45.421875 50.921875 44.660156 51.886719 44.898438 53.050781 L 49.21875 73.652344 C 49.460938 74.816406 50.621094 75.78125 51.78125 75.78125 L 84.101562 75.78125 C 85.261719 75.78125 86.019531 74.816406 85.78125 73.652344 L 81.460938 53.050781 C 81.21875 51.886719 80.058594 50.921875 78.898438 50.921875 Z M 78.898438 50.921875 "/>
<path style=" stroke:none;fillRule:nonzero;fill:rgb(100%,100%,100%);fill-opacity:1;" d="M 52.058594 74.617188 C 51.300781 74.617188 50.5 73.933594 50.339844 73.171875 L 46.019531 52.527344 C 45.941406 52.207031 46.019531 51.925781 46.179688 51.726562 C 46.339844 51.523438 46.578125 51.445312 46.859375 51.445312 L 79.179688 51.445312 C 79.941406 51.445312 80.738281 52.128906 80.898438 52.890625 L 85.21875 73.492188 C 85.300781 73.8125 85.21875 74.09375 85.058594 74.296875 C 84.898438 74.496094 84.660156 74.578125 84.378906 74.578125 L 52.058594 74.578125 Z M 52.058594 74.617188 "/>
<use xlink:href="#surface20" mask="url(#mask5)"/>
<path style=" stroke:none;fillRule:nonzero;fill:rgb(25.098039%,48.235294%,100%);fill-opacity:1;" d="M 48.738281 54.175781 L 48.539062 53.332031 L 55.019531 53.332031 L 55.21875 54.175781 Z M 48.738281 54.175781 "/>
<path style=" stroke:none;fillRule:nonzero;fill:rgb(92.156863%,92.156863%,92.156863%);fill-opacity:1;" d="M 51.699219 56.261719 L 51.539062 55.421875 L 62.898438 55.421875 L 63.058594 56.261719 Z M 51.699219 56.261719 "/>
<path style=" stroke:none;fillRule:nonzero;fill:rgb(92.156863%,92.156863%,92.156863%);fill-opacity:1;" d="M 52.300781 58.351562 L 52.140625 57.507812 L 64.859375 57.507812 L 65.058594 58.351562 Z M 52.300781 58.351562 "/>
<path style=" stroke:none;fillRule:nonzero;fill:rgb(92.156863%,92.156863%,92.156863%);fill-opacity:1;" d="M 52.898438 60.480469 L 52.738281 59.636719 L 62.980469 59.636719 L 63.179688 60.480469 Z M 52.898438 60.480469 "/>
<path style=" stroke:none;fillRule:nonzero;fill:rgb(25.098039%,48.235294%,100%);fill-opacity:1;" d="M 50.699219 63.894531 L 50.5 63.050781 L 54.621094 63.050781 L 54.78125 63.894531 Z M 50.699219 63.894531 "/>
<path style=" stroke:none;fillRule:nonzero;fill:rgb(92.156863%,92.156863%,92.156863%);fill-opacity:1;" d="M 53.699219 65.980469 L 53.5 65.140625 L 58.5 65.140625 L 58.660156 65.980469 Z M 53.699219 65.980469 "/>
<path style=" stroke:none;fillRule:nonzero;fill:rgb(92.156863%,92.156863%,92.156863%);fill-opacity:1;" d="M 59.859375 65.980469 L 59.699219 65.140625 L 64.699219 65.140625 L 64.859375 65.980469 Z M 59.859375 65.980469 "/>
<path style=" stroke:none;fillRule:nonzero;fill:rgb(92.156863%,92.156863%,92.156863%);fill-opacity:1;" d="M 54.300781 68.070312 L 54.101562 67.226562 L 70.980469 67.226562 L 71.179688 68.070312 Z M 54.300781 68.070312 "/>
<path style=" stroke:none;fillRule:nonzero;fill:rgb(92.156863%,92.156863%,92.156863%);fill-opacity:1;" d="M 54.859375 70.199219 L 54.699219 69.355469 L 67.578125 69.355469 L 67.738281 70.199219 Z M 54.859375 70.199219 "/>
<path style=" stroke:none;fillRule:nonzero;fill:rgb(14.901961%,19.607843%,21.960784%);fill-opacity:1;" d="M 94.019531 75.660156 L 51.460938 75.660156 C 50.300781 75.660156 49.539062 76.304688 49.78125 77.148438 L 96.539062 77.148438 C 96.300781 76.34375 95.179688 75.660156 94.019531 75.660156 Z M 94.019531 75.660156 "/>
<use xlink:href="#surface23" mask="url(#mask6)"/>
<path style=" stroke:none;fillRule:nonzero;fill:rgb(25.098039%,48.235294%,100%);fill-opacity:1;" d="M 49.21875 25.863281 L 42.300781 25.863281 L 42.140625 25.101562 L 49.058594 25.101562 Z M 49.21875 25.863281 "/>
<use xlink:href="#surface26" mask="url(#mask7)"/>
<use xlink:href="#surface29" mask="url(#mask8)"/>
<use xlink:href="#surface32" mask="url(#mask9)"/>
<use xlink:href="#surface35" mask="url(#mask10)"/>
<use xlink:href="#surface38" mask="url(#mask11)"/>
<path style=" stroke:none;fillRule:nonzero;fill:rgb(25.098039%,48.235294%,100%);fill-opacity:1;" d="M 52.460938 40.519531 L 45.339844 40.519531 L 45.179688 39.757812 L 52.300781 39.757812 Z M 52.460938 40.519531 "/>
<use xlink:href="#surface41" mask="url(#mask12)"/>
<use xlink:href="#surface44" mask="url(#mask13)"/>
<use xlink:href="#surface47" mask="url(#mask14)"/>
<path style=" stroke:none;fillRule:nonzero;fill:rgb(25.098039%,48.235294%,100%);fill-opacity:1;" d="M 48.980469 20.28125 L 41.140625 20.28125 L 40.980469 19.558594 L 48.820312 19.558594 Z M 48.980469 20.28125 "/>
<use xlink:href="#surface50" mask="url(#mask15)"/>
<use xlink:href="#surface53" mask="url(#mask16)"/>
<use xlink:href="#surface56" mask="url(#mask17)"/>
<path style=" stroke:none;fillRule:nonzero;fill:rgb(25.098039%,48.235294%,100%);fill-opacity:1;" d="M 48.898438 31.40625 L 43.421875 31.40625 L 43.261719 30.640625 L 48.738281 30.640625 Z M 48.898438 31.40625 "/>
<use xlink:href="#surface59" mask="url(#mask18)"/>
<use xlink:href="#surface62" mask="url(#mask19)"/>
<use xlink:href="#surface65" mask="url(#mask20)"/>
<use xlink:href="#surface68" mask="url(#mask21)"/>
<use xlink:href="#surface71" mask="url(#mask22)"/>
<use xlink:href="#surface74" mask="url(#mask23)"/>
<use xlink:href="#surface77" mask="url(#mask24)"/>
<use xlink:href="#surface80" mask="url(#mask25)"/>
<use xlink:href="#surface83" mask="url(#mask26)"/>
<use xlink:href="#surface86" mask="url(#mask27)"/>
<use xlink:href="#surface89" mask="url(#mask28)"/>
<use xlink:href="#surface92" mask="url(#mask29)"/>
<use xlink:href="#surface95" mask="url(#mask30)"/>
<use xlink:href="#surface98" mask="url(#mask31)"/>
<path style=" stroke:none;fillRule:nonzero;fill:rgb(25.098039%,48.235294%,100%);fill-opacity:1;" d="M 71.578125 28.070312 L 61.660156 28.070312 L 61.820312 28.835938 L 71.699219 28.835938 Z M 71.578125 28.070312 "/>
<use xlink:href="#surface101" mask="url(#mask32)"/>
<use xlink:href="#surface104" mask="url(#mask33)"/>
<use xlink:href="#surface107" mask="url(#mask34)"/>
<use xlink:href="#surface110" mask="url(#mask35)"/>
<use xlink:href="#surface113" mask="url(#mask36)"/>
<use xlink:href="#surface116" mask="url(#mask37)"/>
<use xlink:href="#surface119" mask="url(#mask38)"/>
<use xlink:href="#surface122" mask="url(#mask39)"/>
<use xlink:href="#surface125" mask="url(#mask40)"/>
<use xlink:href="#surface128" mask="url(#mask41)"/>
<use xlink:href="#surface131" mask="url(#mask42)"/>
<use xlink:href="#surface134" mask="url(#mask43)"/>
<path style=" stroke:none;fillRule:nonzero;fill:rgb(25.098039%,48.235294%,100%);fill-opacity:1;" d="M 138.980469 69.355469 L 133.820312 69.355469 L 134.421875 77.148438 L 138.378906 77.148438 Z M 138.980469 69.355469 "/>
<use xlink:href="#surface137" mask="url(#mask44)"/>
<path style=" stroke:none;fillRule:nonzero;fill:rgb(14.901961%,19.607843%,21.960784%);fill-opacity:1;" d="M 27.058594 63.933594 L 34.421875 63.933594 L 31.898438 77.148438 L 24.539062 77.148438 Z M 27.058594 63.933594 "/>
<path style=" stroke:none;fillRule:nonzero;fill:rgb(25.098039%,48.235294%,100%);fill-opacity:1;" d="M 36.460938 60.398438 L 26.019531 60.398438 L 28.941406 77.148438 L 39.378906 77.148438 Z M 36.460938 60.398438 "/>
<path style=" stroke:none;fillRule:nonzero;fill:rgb(25.098039%,48.235294%,100%);fill-opacity:1;" d="M 25.421875 60.398438 L 26.019531 60.398438 L 28.941406 77.148438 L 28.339844 77.148438 Z M 25.421875 60.398438 "/>
<use xlink:href="#surface140" mask="url(#mask45)"/>
<path style=" stroke:none;fillRule:nonzero;fill:rgb(100%,100%,100%);fill-opacity:1;" d="M 30.421875 75.339844 L 28.140625 62.167969 L 34.941406 62.167969 L 37.261719 75.339844 Z M 30.421875 75.339844 "/>
<use xlink:href="#surface143" mask="url(#mask46)"/>
<path style=" stroke:none;fillRule:nonzero;fill:rgb(14.901961%,19.607843%,21.960784%);fill-opacity:1;" d="M 88.101562 38.953125 C 88.261719 39.277344 88.179688 39.597656 87.980469 39.71875 C 87.78125 39.796875 87.5 39.636719 87.339844 39.316406 C 87.179688 38.996094 87.261719 38.671875 87.460938 38.554688 C 87.660156 38.433594 87.941406 38.632812 88.101562 38.953125 Z M 88.101562 38.953125 "/>
<path style=" stroke:none;fillRule:nonzero;fill:rgb(100%,33.72549%,32.156863%);fill-opacity:1;" d="M 88.21875 39.597656 C 88.21875 39.597656 88.339844 41.804688 87.941406 43.050781 C 88.738281 43.332031 89.621094 42.609375 89.621094 42.609375 Z M 88.21875 39.597656 "/>
<path style=" stroke:none;fillRule:nonzero;fill:rgb(14.901961%,19.607843%,21.960784%);fill-opacity:1;" d="M 88.140625 36.304688 C 88.101562 36.34375 88.058594 36.34375 88.019531 36.34375 C 87.101562 36.382812 86.699219 37.027344 86.699219 37.066406 C 86.660156 37.148438 86.5 37.1875 86.421875 37.148438 C 86.339844 37.109375 86.300781 36.945312 86.339844 36.867188 C 86.378906 36.828125 86.859375 36.023438 87.980469 35.941406 C 88.101562 35.941406 88.179688 36.023438 88.179688 36.144531 C 88.21875 36.183594 88.179688 36.265625 88.140625 36.304688 Z M 88.140625 36.304688 "/>
<path style=" stroke:none;fillRule:nonzero;fill:rgb(100%,54.509804%,48.235294%);fill-opacity:1;" d="M 99.898438 38.472656 C 101.140625 42.769531 102.5 46.101562 104.21875 47.992188 C 104.21875 47.992188 104.261719 51.363281 98.5 52.96875 C 92.179688 54.738281 94.621094 50.679688 94.621094 50.679688 C 97.820312 48.875 97.5 46.183594 95.101562 45.179688 Z M 99.898438 38.472656 "/>
<path style=" stroke:none;fillRule:nonzero;fill:rgb(14.901961%,19.607843%,21.960784%);fill-opacity:1;" d="M 105.5 47.1875 C 105.378906 45.621094 105.261719 43.8125 104.261719 43.773438 C 103.179688 43.734375 97.019531 46.503906 95.738281 48.433594 C 94.421875 50.398438 96.980469 52.289062 96.980469 52.289062 Z M 105.5 47.1875 "/>
<path style=" stroke:none;fillRule:nonzero;fill:rgb(100%,54.509804%,48.235294%);fill-opacity:1;" d="M 92.898438 71.484375 L 87.578125 71.324219 L 87.660156 75.78125 C 87.660156 75.78125 92.300781 75.300781 92.5 74.09375 Z M 92.898438 71.484375 "/>
<path style=" stroke:none;fillRule:nonzero;fill:rgb(100%,54.509804%,48.235294%);fill-opacity:1;" d="M 84.78125 73.492188 L 84.21875 75.78125 L 87.699219 75.78125 L 87.578125 71.324219 Z M 84.78125 73.492188 "/>
<path style=" stroke:none;fillRule:nonzero;fill:rgb(25.098039%,48.235294%,100%);fill-opacity:1;" d="M 114.261719 52.890625 L 114.140625 54.054688 C 114.101562 54.417969 114.058594 54.777344 114.019531 55.140625 C 113.941406 55.863281 113.820312 56.585938 113.699219 57.308594 C 113.460938 58.753906 113.140625 60.199219 112.78125 61.644531 C 112.421875 63.089844 111.980469 64.535156 111.460938 66.023438 C 111.179688 66.746094 110.898438 67.507812 110.539062 68.230469 C 110.179688 68.996094 109.820312 69.71875 109.339844 70.480469 C 109.21875 70.679688 109.101562 70.882812 108.980469 71.042969 C 108.859375 71.242188 108.699219 71.445312 108.578125 71.644531 C 108.421875 71.84375 108.300781 72.046875 108.101562 72.246094 L 107.820312 72.527344 C 107.738281 72.609375 107.660156 72.730469 107.539062 72.847656 C 106.621094 73.773438 105.660156 74.335938 104.78125 74.738281 C 102.980469 75.539062 101.378906 75.820312 99.820312 75.980469 C 99.019531 76.0625 98.261719 76.101562 97.5 76.140625 C 96.738281 76.183594 95.980469 76.140625 95.261719 76.101562 C 94.5 76.0625 93.78125 75.980469 93.058594 75.902344 C 92.300781 75.820312 91.621094 75.699219 90.820312 75.539062 L 90.941406 71.363281 C 93.5 70.839844 96.179688 70.320312 98.5 69.554688 C 99.058594 69.355469 99.621094 69.15625 100.140625 68.914062 C 100.621094 68.714844 101.101562 68.472656 101.421875 68.230469 C 101.738281 67.988281 101.980469 67.75 102.019531 67.667969 L 102.140625 67.46875 C 102.179688 67.429688 102.21875 67.308594 102.300781 67.226562 C 102.339844 67.148438 102.421875 67.027344 102.460938 66.945312 C 102.5 66.824219 102.578125 66.746094 102.621094 66.625 C 103.019531 65.742188 103.460938 64.617188 103.78125 63.453125 C 104.101562 62.289062 104.421875 61.042969 104.660156 59.757812 C 104.941406 58.511719 105.140625 57.1875 105.378906 55.902344 L 105.699219 53.933594 L 105.980469 52.046875 Z M 114.261719 52.890625 "/>
<use xlink:href="#surface146" mask="url(#mask47)"/>
<path style=" stroke:none;fillRule:nonzero;fill:rgb(42.352941%,38.823529%,100%);fill-opacity:1;" d="M 90.660156 58.230469 C 91.941406 63.613281 93.621094 72.609375 93.980469 84.375 L 117.421875 84.375 C 117.539062 81.484375 117.058594 65.097656 114.699219 53.25 C 113.820312 48.753906 109.421875 45.820312 104.941406 46.824219 C 104.898438 46.824219 104.859375 46.824219 104.820312 46.867188 C 101.898438 47.550781 97.699219 48.59375 95.21875 49.558594 C 95.179688 49.558594 95.140625 49.597656 95.101562 49.597656 C 91.699219 50.921875 89.78125 54.617188 90.660156 58.230469 Z M 90.660156 58.230469 "/>
<use xlink:href="#surface149" mask="url(#mask48)"/>
<path style=" stroke:none;fillRule:nonzero;fill:rgb(100%,54.509804%,48.235294%);fill-opacity:1;" d="M 72.699219 71.765625 L 67.421875 71.285156 L 67.261719 75.742188 C 67.261719 75.742188 69.980469 76.625 72.179688 74.335938 Z M 72.699219 71.765625 "/>
<path style=" stroke:none;fillRule:nonzero;fill:rgb(100%,54.509804%,48.235294%);fill-opacity:1;" d="M 64.859375 72.609375 L 63.179688 75.660156 L 67.21875 75.742188 L 67.421875 71.285156 Z M 64.859375 72.609375 "/>
<path style=" stroke:none;fillRule:nonzero;fill:rgb(42.352941%,38.823529%,100%);fill-opacity:1;" d="M 99.421875 56.183594 C 99.058594 56.90625 98.738281 57.507812 98.339844 58.152344 C 97.980469 58.792969 97.621094 59.4375 97.21875 60.039062 C 96.460938 61.285156 95.699219 62.527344 94.859375 63.734375 C 93.21875 66.183594 91.460938 68.550781 89.378906 70.800781 C 88.339844 71.964844 87.21875 73.050781 85.898438 74.132812 C 85.738281 74.253906 85.539062 74.414062 85.378906 74.535156 C 85.21875 74.65625 85.058594 74.777344 84.78125 74.9375 C 84.539062 75.097656 84.300781 75.21875 84.058594 75.378906 C 83.820312 75.5 83.578125 75.621094 83.339844 75.742188 C 82.378906 76.140625 81.460938 76.421875 80.578125 76.585938 C 78.820312 76.90625 77.140625 76.867188 75.578125 76.703125 C 74.78125 76.585938 74.019531 76.464844 73.261719 76.304688 C 72.898438 76.222656 72.5 76.101562 72.140625 75.980469 C 71.738281 75.863281 71.421875 75.742188 70.980469 75.582031 L 71.660156 71.445312 C 74.179688 71.082031 76.898438 70.679688 78.738281 69.796875 C 79.21875 69.597656 79.621094 69.355469 79.898438 69.113281 C 80.058594 68.996094 80.179688 68.875 80.261719 68.792969 C 80.300781 68.753906 80.421875 68.632812 80.5 68.550781 C 80.578125 68.472656 80.699219 68.390625 80.78125 68.269531 C 81.578125 67.507812 82.378906 66.542969 83.179688 65.582031 C 84.738281 63.574219 86.261719 61.363281 87.699219 59.074219 C 88.421875 57.949219 89.140625 56.785156 89.820312 55.621094 L 90.859375 53.894531 L 91.859375 52.167969 Z M 99.421875 56.183594 "/>
<path style=" stroke:none;fillRule:nonzero;fill:rgb(100%,54.509804%,48.235294%);fill-opacity:1;" d="M 93.019531 139.996094 L 88.621094 139.996094 L 86.421875 129.835938 L 90.820312 129.835938 Z M 93.019531 139.996094 "/>
<path style=" stroke:none;fillRule:nonzero;fill:rgb(14.901961%,19.607843%,21.960784%);fill-opacity:1;" d="M 88.378906 139.074219 L 93.300781 139.074219 C 93.460938 139.074219 93.621094 139.191406 93.660156 139.355469 L 94.539062 143.25 C 94.621094 143.652344 94.300781 144.050781 93.898438 144.011719 C 92.179688 143.972656 91.339844 143.890625 89.179688 143.890625 C 87.859375 143.890625 86.140625 144.011719 84.300781 144.011719 C 82.5 144.011719 82.21875 142.203125 82.980469 142.003906 C 86.339844 141.28125 86.578125 140.238281 87.660156 139.273438 C 87.859375 139.152344 88.101562 139.074219 88.378906 139.074219 Z M 88.378906 139.074219 "/>
<use xlink:href="#surface152" mask="url(#mask49)"/>
<path style=" stroke:none;fillRule:nonzero;fill:rgb(100%,54.509804%,48.235294%);fill-opacity:1;" d="M 98.460938 33.292969 C 100.019531 37.347656 101.179688 39.636719 100.101562 42.609375 C 98.5 47.066406 92.820312 47.507812 90.058594 43.976562 C 87.578125 40.800781 85.421875 34.699219 88.539062 31.324219 C 91.660156 28.03125 96.898438 29.234375 98.460938 33.292969 Z M 98.460938 33.292969 "/>
<path style=" stroke:none;fillRule:nonzero;fill:rgb(14.901961%,19.607843%,21.960784%);fill-opacity:1;" d="M 90.78125 39.398438 C 90.140625 40.28125 89.621094 40.960938 89.621094 40.960938 C 89.621094 40.960938 88.261719 37.589844 88.78125 36.0625 C 88.140625 34.738281 86.78125 36.664062 86.300781 34.136719 C 85.820312 31.605469 87.980469 28.875 88.78125 28.3125 C 88.898438 28.511719 88.898438 29.234375 88.898438 29.234375 C 88.898438 29.234375 92.140625 26.34375 96.738281 26.746094 C 96.421875 27.066406 96.300781 27.910156 96.300781 27.910156 C 96.300781 27.910156 101.058594 28.714844 102.140625 31.40625 C 101.460938 31.082031 100.941406 30.964844 100.941406 30.964844 C 100.941406 30.964844 102.300781 32.648438 101.898438 35.261719 C 101.5 37.871094 101.300781 40.761719 101.378906 41.886719 C 101.421875 43.011719 98.300781 45.21875 96.421875 42.890625 C 94.5 40.5625 90.78125 39.398438 90.78125 39.398438 Z M 90.78125 39.398438 "/>
<path style=" stroke:none;fillRule:nonzero;fill:rgb(100%,54.509804%,48.235294%);fill-opacity:1;" d="M 92.78125 38.511719 C 93.058594 39.515625 92.898438 40.5625 92.578125 41.363281 C 92.058594 42.527344 91.019531 42.289062 90.5 41.242188 C 90.019531 40.28125 89.738281 38.554688 90.578125 37.710938 C 91.378906 36.867188 92.460938 37.347656 92.78125 38.511719 Z M 92.78125 38.511719 "/>
<path style=" stroke:none;fillRule:nonzero;fill:rgb(25.098039%,48.235294%,100%);fill-opacity:1;" d="M 100.980469 84.375 C 100.980469 84.375 80.660156 91.765625 80.058594 101.5625 C 78.941406 119.59375 86.300781 133.890625 86.300781 133.890625 L 93.019531 133.167969 C 93.019531 133.167969 91.820312 127.347656 90.941406 111 C 89.820312 90.480469 124.539062 111.484375 117.378906 84.335938 Z M 100.980469 84.375 "/>
<use xlink:href="#surface155" mask="url(#mask50)"/>
<path style=" stroke:none;fillRule:nonzero;fill:rgb(25.098039%,48.235294%,100%);fill-opacity:1;" d="M 84.460938 131.402344 C 84.421875 131.402344 85.539062 134.414062 85.539062 134.414062 L 93.941406 133.570312 L 93.5 130.839844 Z M 84.460938 131.402344 "/>
<path style=" stroke:none;fillRule:nonzero;fill:rgb(100%,54.509804%,48.235294%);fill-opacity:1;" d="M 74.101562 140.476562 L 69.699219 140.476562 L 68.421875 130.316406 L 72.820312 130.316406 Z M 74.101562 140.476562 "/>
<path style=" stroke:none;fillRule:nonzero;fill:rgb(14.901961%,19.607843%,21.960784%);fill-opacity:1;" d="M 69.660156 139.074219 L 74.460938 139.074219 C 74.621094 139.074219 74.78125 139.191406 74.820312 139.355469 L 75.699219 143.25 C 75.78125 143.652344 75.5 144.050781 75.058594 144.011719 C 73.339844 143.972656 70.859375 143.890625 68.660156 143.890625 C 66.140625 143.890625 65.621094 144.050781 62.660156 144.050781 C 60.859375 144.050781 60.378906 142.246094 61.101562 142.085938 C 64.539062 141.320312 65.621094 141.242188 68.578125 139.394531 C 68.941406 139.191406 69.300781 139.074219 69.660156 139.074219 Z M 69.660156 139.074219 "/>
<use xlink:href="#surface158" mask="url(#mask51)"/>
<path style=" stroke:none;fillRule:nonzero;fill:rgb(25.098039%,48.235294%,100%);fill-opacity:1;" d="M 93.980469 84.375 C 93.980469 84.375 60.660156 87.347656 61.019531 104.132812 C 61.378906 121.601562 67.898438 133.410156 67.898438 133.410156 L 74.421875 133.410156 C 74.421875 133.410156 73.179688 124.335938 73.421875 107.144531 C 73.5 102.003906 83.859375 100.277344 93.980469 99.675781 C 102.738281 99.152344 110.941406 94.132812 114.339844 86.023438 L 115.019531 84.375 Z M 93.980469 84.375 "/>
<use xlink:href="#surface161" mask="url(#mask52)"/>
<path style=" stroke:none;fillRule:nonzero;fill:rgb(25.098039%,48.235294%,100%);fill-opacity:1;" d="M 66.378906 131.644531 C 66.339844 131.644531 67.5 134.65625 67.5 134.65625 L 75.339844 134.09375 L 74.898438 131.363281 Z M 66.378906 131.644531 "/>
<path style=" stroke:none;fillRule:nonzero;fill:rgb(14.901961%,19.607843%,21.960784%);fill-opacity:1;" d="M 102.699219 65.5 L 98.460938 81.84375 C 97.378906 86.023438 96.820312 90.320312 96.820312 94.65625 L 96.820312 102.246094 C 96.820312 104.175781 98.21875 105.738281 99.980469 105.738281 L 121.660156 105.738281 C 123.378906 105.738281 124.820312 104.175781 124.820312 102.246094 L 124.820312 94.65625 C 124.820312 90.320312 125.378906 85.980469 126.460938 81.84375 L 130.179688 67.386719 C 130.738281 65.179688 129.261719 62.96875 127.140625 62.96875 L 105.699219 62.96875 C 104.339844 62.96875 103.101562 64.015625 102.699219 65.5 Z M 102.699219 65.5 "/>
<path style=" stroke:none;fillRule:nonzero;fill:rgb(14.901961%,19.607843%,21.960784%);fill-opacity:1;" d="M 75.78125 97.828125 L 76.5 101.886719 C 76.859375 104.011719 78.738281 105.738281 80.660156 105.738281 L 104.738281 105.738281 C 106.660156 105.738281 107.941406 104.011719 107.578125 101.886719 L 106.859375 97.828125 C 106.421875 95.417969 104.300781 93.453125 102.101562 93.453125 L 78.980469 93.453125 C 76.78125 93.453125 75.339844 95.417969 75.78125 97.828125 Z M 75.78125 97.828125 "/>
<path style=" stroke:none;fillRule:nonzero;fill:rgb(25.098039%,48.235294%,100%);fill-opacity:1;" d="M 107.058594 109.835938 L 94.460938 109.835938 L 93.21875 105.738281 L 108.300781 105.738281 Z M 107.058594 109.835938 "/>
<path style=" stroke:none;fillRule:nonzero;fill:rgb(25.098039%,48.235294%,100%);fill-opacity:1;" d="M 98.5 109.835938 L 103.019531 109.835938 L 103.019531 140.117188 L 98.5 140.117188 Z M 98.5 109.835938 "/>
<use xlink:href="#surface164" mask="url(#mask53)"/>
<use xlink:href="#surface167" mask="url(#mask54)"/>
<path style=" stroke:none;fillRule:nonzero;fill:rgb(25.098039%,48.235294%,100%);fill-opacity:1;" d="M 111.101562 144.816406 L 90.378906 144.816406 C 89.820312 144.816406 89.578125 144.09375 90.058594 143.769531 L 93.339844 141.363281 C 94.898438 140.195312 96.820312 139.554688 98.78125 139.554688 L 102.699219 139.554688 C 104.660156 139.554688 106.578125 140.195312 108.140625 141.363281 L 111.421875 143.769531 C 111.898438 144.09375 111.660156 144.816406 111.101562 144.816406 Z M 111.101562 144.816406 "/>
</g>
</svg>
